<svg xmlns="http://www.w3.org/2000/svg"
    width="824" height="168" viewBox="0 0 824 168">
  <rect width="100%" height="100%" rx="10" fill="#0d1117"/>
  <text x="16" y="20" fill="#c9d1d9"
        font-family="ui-monospace, SFMono-Regular, Menlo, Consolas, monospace"
        font-size="12">HELLO — reference date 2026-06-23</text>
  <rect x="16" y="44" width="12" height="12" rx="2" fill="#39d353"/><rect x="16" y="59" width="12" height="12" rx="2" fill="#39d353"/><rect x="16" y="74" width="12" height="12" rx="2" fill="#39d353"/><rect x="16" y="89" width="12" height="12" rx="2" fill="#39d353"/><rect x="16" y="104" width="12" height="12" rx="2" fill="#39d353"/><rect x="16" y="119" width="12" height="12" rx="2" fill="#39d353"/><rect x="16" y="134" width="12" height="12" rx="2" fill="#39d353"/><rect x="31" y="44" width="12" height="12" rx="2" fill="#161b22"/><rect x="31" y="59" width="12" height="12" rx="2" fill="#161b22"/><rect x="31" y="74" width="12" height="12" rx="2" fill="#161b22"/><rect x="31" y="89" width="12" height="12" rx="2" fill="#39d353"/><rect x="31" y="104" width="12" height="12" rx="2" fill="#161b22"/><rect x="31" y="119" width="12" height="12" rx="2" fill="#161b22"/><rect x="31" y="134" width="12" height="12" rx="2" fill="#161b22"/><rect x="46" y="44" width="12" height="12" rx="2" fill="#161b22"/><rect x="46" y="59" width="12" height="12" rx="2" fill="#161b22"/><rect x="46" y="74" width="12" height="12" rx="2" fill="#161b22"/><rect x="46" y="89" width="12" height="12" rx="2" fill="#39d353"/><rect x="46" y="104" width="12" height="12" rx="2" fill="#161b22"/><rect x="46" y="119" width="12" height="12" rx="2" fill="#161b22"/><rect x="46" y="134" width="12" height="12" rx="2" fill="#161b22"/><rect x="61" y="44" width="12" height="12" rx="2" fill="#161b22"/><rect x="61" y="59" width="12" height="12" rx="2" fill="#161b22"/><rect x="61" y="74" width="12" height="12" rx="2" fill="#161b22"/><rect x="61" y="89" width="12" height="12" rx="2" fill="#39d353"/><rect x="61" y="104" width="12" height="12" rx="2" fill="#161b22"/><rect x="61" y="119" width="12" height="12" rx="2" fill="#161b22"/><rect x="61" y="134" width="12" height="12" rx="2" fill="#161b22"/><rect x="76" y="44" width="12" height="12" rx="2" fill="#39d353"/><rect x="76" y="59" width="12" height="12" rx="2" fill="#39d353"/><rect x="76" y="74" width="12" height="12" rx="2" fill="#39d353"/><rect x="76" y="89" width="12" height="12" rx="2" fill="#39d353"/><rect x="76" y="104" width="12" height="12" rx="2" fill="#39d353"/><rect x="76" y="119" width="12" height="12" rx="2" fill="#39d353"/><rect x="76" y="134" width="12" height="12" rx="2" fill="#39d353"/><rect x="91" y="44" width="12" height="12" rx="2" fill="#161b22"/><rect x="91" y="59" width="12" height="12" rx="2" fill="#161b22"/><rect x="91" y="74" width="12" height="12" rx="2" fill="#161b22"/><rect x="91" y="89" width="12" height="12" rx="2" fill="#161b22"/><rect x="91" y="104" width="12" height="12" rx="2" fill="#161b22"/><rect x="91" y="119" width="12" height="12" rx="2" fill="#161b22"/><rect x="91" y="134" width="12" height="12" rx="2" fill="#161b22"/><rect x="106" y="44" width="12" height="12" rx="2" fill="#39d353"/><rect x="106" y="59" width="12" height="12" rx="2" fill="#39d353"/><rect x="106" y="74" width="12" height="12" rx="2" fill="#39d353"/><rect x="106" y="89" width="12" height="12" rx="2" fill="#39d353"/><rect x="106" y="104" width="12" height="12" rx="2" fill="#39d353"/><rect x="106" y="119" width="12" height="12" rx="2" fill="#39d353"/><rect x="106" y="134" width="12" height="12" rx="2" fill="#39d353"/><rect x="121" y="44" width="12" height="12" rx="2" fill="#39d353"/><rect x="121" y="59" width="12" height="12" rx="2" fill="#161b22"/><rect x="121" y="74" width="12" height="12" rx="2" fill="#161b22"/><rect x="121" y="89" width="12" height="12" rx="2" fill="#39d353"/><rect x="121" y="104" width="12" height="12" rx="2" fill="#161b22"/><rect x="121" y="119" width="12" height="12" rx="2" fill="#161b22"/><rect x="121" y="134" width="12" height="12" rx="2" fill="#39d353"/><rect x="136" y="44" width="12" height="12" rx="2" fill="#39d353"/><rect x="136" y="59" width="12" height="12" rx="2" fill="#161b22"/><rect x="136" y="74" width="12" height="12" rx="2" fill="#161b22"/><rect x="136" y="89" width="12" height="12" rx="2" fill="#39d353"/><rect x="136" y="104" width="12" height="12" rx="2" fill="#161b22"/><rect x="136" y="119" width="12" height="12" rx="2" fill="#161b22"/><rect x="136" y="134" width="12" height="12" rx="2" fill="#39d353"/><rect x="151" y="44" width="12" height="12" rx="2" fill="#39d353"/><rect x="151" y="59" width="12" height="12" rx="2" fill="#161b22"/><rect x="151" y="74" width="12" height="12" rx="2" fill="#161b22"/><rect x="151" y="89" width="12" height="12" rx="2" fill="#39d353"/><rect x="151" y="104" width="12" height="12" rx="2" fill="#161b22"/><rect x="151" y="119" width="12" height="12" rx="2" fill="#161b22"/><rect x="151" y="134" width="12" height="12" rx="2" fill="#39d353"/><rect x="166" y="44" width="12" height="12" rx="2" fill="#39d353"/><rect x="166" y="59" width="12" height="12" rx="2" fill="#161b22"/><rect x="166" y="74" width="12" height="12" rx="2" fill="#161b22"/><rect x="166" y="89" width="12" height="12" rx="2" fill="#161b22"/><rect x="166" y="104" width="12" height="12" rx="2" fill="#161b22"/><rect x="166" y="119" width="12" height="12" rx="2" fill="#161b22"/><rect x="166" y="134" width="12" height="12" rx="2" fill="#39d353"/><rect x="181" y="44" width="12" height="12" rx="2" fill="#161b22"/><rect x="181" y="59" width="12" height="12" rx="2" fill="#161b22"/><rect x="181" y="74" width="12" height="12" rx="2" fill="#161b22"/><rect x="181" y="89" width="12" height="12" rx="2" fill="#161b22"/><rect x="181" y="104" width="12" height="12" rx="2" fill="#161b22"/><rect x="181" y="119" width="12" height="12" rx="2" fill="#161b22"/><rect x="181" y="134" width="12" height="12" rx="2" fill="#161b22"/><rect x="196" y="44" width="12" height="12" rx="2" fill="#39d353"/><rect x="196" y="59" width="12" height="12" rx="2" fill="#39d353"/><rect x="196" y="74" width="12" height="12" rx="2" fill="#39d353"/><rect x="196" y="89" width="12" height="12" rx="2" fill="#39d353"/><rect x="196" y="104" width="12" height="12" rx="2" fill="#39d353"/><rect x="196" y="119" width="12" height="12" rx="2" fill="#39d353"/><rect x="196" y="134" width="12" height="12" rx="2" fill="#39d353"/><rect x="211" y="44" width="12" height="12" rx="2" fill="#161b22"/><rect x="211" y="59" width="12" height="12" rx="2" fill="#161b22"/><rect x="211" y="74" width="12" height="12" rx="2" fill="#161b22"/><rect x="211" y="89" width="12" height="12" rx="2" fill="#161b22"/><rect x="211" y="104" width="12" height="12" rx="2" fill="#161b22"/><rect x="211" y="119" width="12" height="12" rx="2" fill="#161b22"/><rect x="211" y="134" width="12" height="12" rx="2" fill="#39d353"/><rect x="226" y="44" width="12" height="12" rx="2" fill="#161b22"/><rect x="226" y="59" width="12" height="12" rx="2" fill="#161b22"/><rect x="226" y="74" width="12" height="12" rx="2" fill="#161b22"/><rect x="226" y="89" width="12" height="12" rx="2" fill="#161b22"/><rect x="226" y="104" width="12" height="12" rx="2" fill="#161b22"/><rect x="226" y="119" width="12" height="12" rx="2" fill="#161b22"/><rect x="226" y="134" width="12" height="12" rx="2" fill="#39d353"/><rect x="241" y="44" width="12" height="12" rx="2" fill="#161b22"/><rect x="241" y="59" width="12" height="12" rx="2" fill="#161b22"/><rect x="241" y="74" width="12" height="12" rx="2" fill="#161b22"/><rect x="241" y="89" width="12" height="12" rx="2" fill="#161b22"/><rect x="241" y="104" width="12" height="12" rx="2" fill="#161b22"/><rect x="241" y="119" width="12" height="12" rx="2" fill="#161b22"/><rect x="241" y="134" width="12" height="12" rx="2" fill="#39d353"/><rect x="256" y="44" width="12" height="12" rx="2" fill="#161b22"/><rect x="256" y="59" width="12" height="12" rx="2" fill="#161b22"/><rect x="256" y="74" width="12" height="12" rx="2" fill="#161b22"/><rect x="256" y="89" width="12" height="12" rx="2" fill="#161b22"/><rect x="256" y="104" width="12" height="12" rx="2" fill="#161b22"/><rect x="256" y="119" width="12" height="12" rx="2" fill="#161b22"/><rect x="256" y="134" width="12" height="12" rx="2" fill="#39d353"/><rect x="271" y="44" width="12" height="12" rx="2" fill="#161b22"/><rect x="271" y="59" width="12" height="12" rx="2" fill="#161b22"/><rect x="271" y="74" width="12" height="12" rx="2" fill="#161b22"/><rect x="271" y="89" width="12" height="12" rx="2" fill="#161b22"/><rect x="271" y="104" width="12" height="12" rx="2" fill="#161b22"/><rect x="271" y="119" width="12" height="12" rx="2" fill="#161b22"/><rect x="271" y="134" width="12" height="12" rx="2" fill="#161b22"/><rect x="286" y="44" width="12" height="12" rx="2" fill="#39d353"/><rect x="286" y="59" width="12" height="12" rx="2" fill="#39d353"/><rect x="286" y="74" width="12" height="12" rx="2" fill="#39d353"/><rect x="286" y="89" width="12" height="12" rx="2" fill="#39d353"/><rect x="286" y="104" width="12" height="12" rx="2" fill="#39d353"/><rect x="286" y="119" width="12" height="12" rx="2" fill="#39d353"/><rect x="286" y="134" width="12" height="12" rx="2" fill="#39d353"/><rect x="301" y="44" width="12" height="12" rx="2" fill="#161b22"/><rect x="301" y="59" width="12" height="12" rx="2" fill="#161b22"/><rect x="301" y="74" width="12" height="12" rx="2" fill="#161b22"/><rect x="301" y="89" width="12" height="12" rx="2" fill="#161b22"/><rect x="301" y="104" width="12" height="12" rx="2" fill="#161b22"/><rect x="301" y="119" width="12" height="12" rx="2" fill="#161b22"/><rect x="301" y="134" width="12" height="12" rx="2" fill="#39d353"/><rect x="316" y="44" width="12" height="12" rx="2" fill="#161b22"/><rect x="316" y="59" width="12" height="12" rx="2" fill="#161b22"/><rect x="316" y="74" width="12" height="12" rx="2" fill="#161b22"/><rect x="316" y="89" width="12" height="12" rx="2" fill="#161b22"/><rect x="316" y="104" width="12" height="12" rx="2" fill="#161b22"/><rect x="316" y="119" width="12" height="12" rx="2" fill="#161b22"/><rect x="316" y="134" width="12" height="12" rx="2" fill="#39d353"/><rect x="331" y="44" width="12" height="12" rx="2" fill="#161b22"/><rect x="331" y="59" width="12" height="12" rx="2" fill="#161b22"/><rect x="331" y="74" width="12" height="12" rx="2" fill="#161b22"/><rect x="331" y="89" width="12" height="12" rx="2" fill="#161b22"/><rect x="331" y="104" width="12" height="12" rx="2" fill="#161b22"/><rect x="331" y="119" width="12" height="12" rx="2" fill="#161b22"/><rect x="331" y="134" width="12" height="12" rx="2" fill="#39d353"/><rect x="346" y="44" width="12" height="12" rx="2" fill="#161b22"/><rect x="346" y="59" width="12" height="12" rx="2" fill="#161b22"/><rect x="346" y="74" width="12" height="12" rx="2" fill="#161b22"/><rect x="346" y="89" width="12" height="12" rx="2" fill="#161b22"/><rect x="346" y="104" width="12" height="12" rx="2" fill="#161b22"/><rect x="346" y="119" width="12" height="12" rx="2" fill="#161b22"/><rect x="346" y="134" width="12" height="12" rx="2" fill="#39d353"/><rect x="361" y="44" width="12" height="12" rx="2" fill="#161b22"/><rect x="361" y="59" width="12" height="12" rx="2" fill="#161b22"/><rect x="361" y="74" width="12" height="12" rx="2" fill="#161b22"/><rect x="361" y="89" width="12" height="12" rx="2" fill="#161b22"/><rect x="361" y="104" width="12" height="12" rx="2" fill="#161b22"/><rect x="361" y="119" width="12" height="12" rx="2" fill="#161b22"/><rect x="361" y="134" width="12" height="12" rx="2" fill="#161b22"/><rect x="376" y="44" width="12" height="12" rx="2" fill="#161b22"/><rect x="376" y="59" width="12" height="12" rx="2" fill="#39d353"/><rect x="376" y="74" width="12" height="12" rx="2" fill="#39d353"/><rect x="376" y="89" width="12" height="12" rx="2" fill="#39d353"/><rect x="376" y="104" width="12" height="12" rx="2" fill="#39d353"/><rect x="376" y="119" width="12" height="12" rx="2" fill="#39d353"/><rect x="376" y="134" width="12" height="12" rx="2" fill="#161b22"/><rect x="391" y="44" width="12" height="12" rx="2" fill="#39d353"/><rect x="391" y="59" width="12" height="12" rx="2" fill="#161b22"/><rect x="391" y="74" width="12" height="12" rx="2" fill="#161b22"/><rect x="391" y="89" width="12" height="12" rx="2" fill="#161b22"/><rect x="391" y="104" width="12" height="12" rx="2" fill="#161b22"/><rect x="391" y="119" width="12" height="12" rx="2" fill="#161b22"/><rect x="391" y="134" width="12" height="12" rx="2" fill="#39d353"/><rect x="406" y="44" width="12" height="12" rx="2" fill="#39d353"/><rect x="406" y="59" width="12" height="12" rx="2" fill="#161b22"/><rect x="406" y="74" width="12" height="12" rx="2" fill="#161b22"/><rect x="406" y="89" width="12" height="12" rx="2" fill="#161b22"/><rect x="406" y="104" width="12" height="12" rx="2" fill="#161b22"/><rect x="406" y="119" width="12" height="12" rx="2" fill="#161b22"/><rect x="406" y="134" width="12" height="12" rx="2" fill="#39d353"/><rect x="421" y="44" width="12" height="12" rx="2" fill="#39d353"/><rect x="421" y="59" width="12" height="12" rx="2" fill="#161b22"/><rect x="421" y="74" width="12" height="12" rx="2" fill="#161b22"/><rect x="421" y="89" width="12" height="12" rx="2" fill="#161b22"/><rect x="421" y="104" width="12" height="12" rx="2" fill="#161b22"/><rect x="421" y="119" width="12" height="12" rx="2" fill="#161b22"/><rect x="421" y="134" width="12" height="12" rx="2" fill="#39d353"/><rect x="436" y="44" width="12" height="12" rx="2" fill="#161b22"/><rect x="436" y="59" width="12" height="12" rx="2" fill="#39d353"/><rect x="436" y="74" width="12" height="12" rx="2" fill="#39d353"/><rect x="436" y="89" width="12" height="12" rx="2" fill="#39d353"/><rect x="436" y="104" width="12" height="12" rx="2" fill="#39d353"/><rect x="436" y="119" width="12" height="12" rx="2" fill="#39d353"/><rect x="436" y="134" width="12" height="12" rx="2" fill="#161b22"/><rect x="451" y="44" width="12" height="12" rx="2" fill="#161b22"/><rect x="451" y="59" width="12" height="12" rx="2" fill="#161b22"/><rect x="451" y="74" width="12" height="12" rx="2" fill="#161b22"/><rect x="451" y="89" width="12" height="12" rx="2" fill="#161b22"/><rect x="451" y="104" width="12" height="12" rx="2" fill="#161b22"/><rect x="451" y="119" width="12" height="12" rx="2" fill="#161b22"/><rect x="451" y="134" width="12" height="12" rx="2" fill="#161b22"/><rect x="466" y="44" width="12" height="12" rx="2" fill="#161b22"/><rect x="466" y="59" width="12" height="12" rx="2" fill="#161b22"/><rect x="466" y="74" width="12" height="12" rx="2" fill="#161b22"/><rect x="466" y="89" width="12" height="12" rx="2" fill="#161b22"/><rect x="466" y="104" width="12" height="12" rx="2" fill="#161b22"/><rect x="466" y="119" width="12" height="12" rx="2" fill="#161b22"/><rect x="466" y="134" width="12" height="12" rx="2" fill="#161b22"/><rect x="481" y="44" width="12" height="12" rx="2" fill="#161b22"/><rect x="481" y="59" width="12" height="12" rx="2" fill="#161b22"/><rect x="481" y="74" width="12" height="12" rx="2" fill="#161b22"/><rect x="481" y="89" width="12" height="12" rx="2" fill="#161b22"/><rect x="481" y="104" width="12" height="12" rx="2" fill="#161b22"/><rect x="481" y="119" width="12" height="12" rx="2" fill="#161b22"/><rect x="481" y="134" width="12" height="12" rx="2" fill="#161b22"/><rect x="496" y="44" width="12" height="12" rx="2" fill="#161b22"/><rect x="496" y="59" width="12" height="12" rx="2" fill="#161b22"/><rect x="496" y="74" width="12" height="12" rx="2" fill="#161b22"/><rect x="496" y="89" width="12" height="12" rx="2" fill="#161b22"/><rect x="496" y="104" width="12" height="12" rx="2" fill="#161b22"/><rect x="496" y="119" width="12" height="12" rx="2" fill="#161b22"/><rect x="496" y="134" width="12" height="12" rx="2" fill="#161b22"/><rect x="511" y="44" width="12" height="12" rx="2" fill="#161b22"/><rect x="511" y="59" width="12" height="12" rx="2" fill="#161b22"/><rect x="511" y="74" width="12" height="12" rx="2" fill="#161b22"/><rect x="511" y="89" width="12" height="12" rx="2" fill="#161b22"/><rect x="511" y="104" width="12" height="12" rx="2" fill="#161b22"/><rect x="511" y="119" width="12" height="12" rx="2" fill="#161b22"/><rect x="511" y="134" width="12" height="12" rx="2" fill="#161b22"/><rect x="526" y="44" width="12" height="12" rx="2" fill="#161b22"/><rect x="526" y="59" width="12" height="12" rx="2" fill="#161b22"/><rect x="526" y="74" width="12" height="12" rx="2" fill="#161b22"/><rect x="526" y="89" width="12" height="12" rx="2" fill="#161b22"/><rect x="526" y="104" width="12" height="12" rx="2" fill="#161b22"/><rect x="526" y="119" width="12" height="12" rx="2" fill="#161b22"/><rect x="526" y="134" width="12" height="12" rx="2" fill="#161b22"/><rect x="541" y="44" width="12" height="12" rx="2" fill="#161b22"/><rect x="541" y="59" width="12" height="12" rx="2" fill="#161b22"/><rect x="541" y="74" width="12" height="12" rx="2" fill="#161b22"/><rect x="541" y="89" width="12" height="12" rx="2" fill="#161b22"/><rect x="541" y="104" width="12" height="12" rx="2" fill="#161b22"/><rect x="541" y="119" width="12" height="12" rx="2" fill="#161b22"/><rect x="541" y="134" width="12" height="12" rx="2" fill="#161b22"/><rect x="556" y="44" width="12" height="12" rx="2" fill="#161b22"/><rect x="556" y="59" width="12" height="12" rx="2" fill="#161b22"/><rect x="556" y="74" width="12" height="12" rx="2" fill="#161b22"/><rect x="556" y="89" width="12" height="12" rx="2" fill="#161b22"/><rect x="556" y="104" width="12" height="12" rx="2" fill="#161b22"/><rect x="556" y="119" width="12" height="12" rx="2" fill="#161b22"/><rect x="556" y="134" width="12" height="12" rx="2" fill="#161b22"/><rect x="571" y="44" width="12" height="12" rx="2" fill="#161b22"/><rect x="571" y="59" width="12" height="12" rx="2" fill="#161b22"/><rect x="571" y="74" width="12" height="12" rx="2" fill="#161b22"/><rect x="571" y="89" width="12" height="12" rx="2" fill="#161b22"/><rect x="571" y="104" width="12" height="12" rx="2" fill="#161b22"/><rect x="571" y="119" width="12" height="12" rx="2" fill="#161b22"/><rect x="571" y="134" width="12" height="12" rx="2" fill="#161b22"/><rect x="586" y="44" width="12" height="12" rx="2" fill="#161b22"/><rect x="586" y="59" width="12" height="12" rx="2" fill="#161b22"/><rect x="586" y="74" width="12" height="12" rx="2" fill="#161b22"/><rect x="586" y="89" width="12" height="12" rx="2" fill="#161b22"/><rect x="586" y="104" width="12" height="12" rx="2" fill="#161b22"/><rect x="586" y="119" width="12" height="12" rx="2" fill="#161b22"/><rect x="586" y="134" width="12" height="12" rx="2" fill="#161b22"/><rect x="601" y="44" width="12" height="12" rx="2" fill="#161b22"/><rect x="601" y="59" width="12" height="12" rx="2" fill="#161b22"/><rect x="601" y="74" width="12" height="12" rx="2" fill="#161b22"/><rect x="601" y="89" width="12" height="12" rx="2" fill="#161b22"/><rect x="601" y="104" width="12" height="12" rx="2" fill="#161b22"/><rect x="601" y="119" width="12" height="12" rx="2" fill="#161b22"/><rect x="601" y="134" width="12" height="12" rx="2" fill="#161b22"/><rect x="616" y="44" width="12" height="12" rx="2" fill="#161b22"/><rect x="616" y="59" width="12" height="12" rx="2" fill="#161b22"/><rect x="616" y="74" width="12" height="12" rx="2" fill="#161b22"/><rect x="616" y="89" width="12" height="12" rx="2" fill="#161b22"/><rect x="616" y="104" width="12" height="12" rx="2" fill="#161b22"/><rect x="616" y="119" width="12" height="12" rx="2" fill="#161b22"/><rect x="616" y="134" width="12" height="12" rx="2" fill="#161b22"/><rect x="631" y="44" width="12" height="12" rx="2" fill="#161b22"/><rect x="631" y="59" width="12" height="12" rx="2" fill="#161b22"/><rect x="631" y="74" width="12" height="12" rx="2" fill="#161b22"/><rect x="631" y="89" width="12" height="12" rx="2" fill="#161b22"/><rect x="631" y="104" width="12" height="12" rx="2" fill="#161b22"/><rect x="631" y="119" width="12" height="12" rx="2" fill="#161b22"/><rect x="631" y="134" width="12" height="12" rx="2" fill="#161b22"/><rect x="646" y="44" width="12" height="12" rx="2" fill="#161b22"/><rect x="646" y="59" width="12" height="12" rx="2" fill="#161b22"/><rect x="646" y="74" width="12" height="12" rx="2" fill="#161b22"/><rect x="646" y="89" width="12" height="12" rx="2" fill="#161b22"/><rect x="646" y="104" width="12" height="12" rx="2" fill="#161b22"/><rect x="646" y="119" width="12" height="12" rx="2" fill="#161b22"/><rect x="646" y="134" width="12" height="12" rx="2" fill="#161b22"/><rect x="661" y="44" width="12" height="12" rx="2" fill="#161b22"/><rect x="661" y="59" width="12" height="12" rx="2" fill="#161b22"/><rect x="661" y="74" width="12" height="12" rx="2" fill="#161b22"/><rect x="661" y="89" width="12" height="12" rx="2" fill="#161b22"/><rect x="661" y="104" width="12" height="12" rx="2" fill="#161b22"/><rect x="661" y="119" width="12" height="12" rx="2" fill="#161b22"/><rect x="661" y="134" width="12" height="12" rx="2" fill="#161b22"/><rect x="676" y="44" width="12" height="12" rx="2" fill="#161b22"/><rect x="676" y="59" width="12" height="12" rx="2" fill="#161b22"/><rect x="676" y="74" width="12" height="12" rx="2" fill="#161b22"/><rect x="676" y="89" width="12" height="12" rx="2" fill="#161b22"/><rect x="676" y="104" width="12" height="12" rx="2" fill="#161b22"/><rect x="676" y="119" width="12" height="12" rx="2" fill="#161b22"/><rect x="676" y="134" width="12" height="12" rx="2" fill="#161b22"/><rect x="691" y="44" width="12" height="12" rx="2" fill="#161b22"/><rect x="691" y="59" width="12" height="12" rx="2" fill="#161b22"/><rect x="691" y="74" width="12" height="12" rx="2" fill="#161b22"/><rect x="691" y="89" width="12" height="12" rx="2" fill="#161b22"/><rect x="691" y="104" width="12" height="12" rx="2" fill="#161b22"/><rect x="691" y="119" width="12" height="12" rx="2" fill="#161b22"/><rect x="691" y="134" width="12" height="12" rx="2" fill="#161b22"/><rect x="706" y="44" width="12" height="12" rx="2" fill="#161b22"/><rect x="706" y="59" width="12" height="12" rx="2" fill="#161b22"/><rect x="706" y="74" width="12" height="12" rx="2" fill="#161b22"/><rect x="706" y="89" width="12" height="12" rx="2" fill="#161b22"/><rect x="706" y="104" width="12" height="12" rx="2" fill="#161b22"/><rect x="706" y="119" width="12" height="12" rx="2" fill="#161b22"/><rect x="706" y="134" width="12" height="12" rx="2" fill="#161b22"/><rect x="721" y="44" width="12" height="12" rx="2" fill="#161b22"/><rect x="721" y="59" width="12" height="12" rx="2" fill="#161b22"/><rect x="721" y="74" width="12" height="12" rx="2" fill="#161b22"/><rect x="721" y="89" width="12" height="12" rx="2" fill="#161b22"/><rect x="721" y="104" width="12" height="12" rx="2" fill="#161b22"/><rect x="721" y="119" width="12" height="12" rx="2" fill="#161b22"/><rect x="721" y="134" width="12" height="12" rx="2" fill="#161b22"/><rect x="736" y="44" width="12" height="12" rx="2" fill="#161b22"/><rect x="736" y="59" width="12" height="12" rx="2" fill="#161b22"/><rect x="736" y="74" width="12" height="12" rx="2" fill="#161b22"/><rect x="736" y="89" width="12" height="12" rx="2" fill="#161b22"/><rect x="736" y="104" width="12" height="12" rx="2" fill="#161b22"/><rect x="736" y="119" width="12" height="12" rx="2" fill="#161b22"/><rect x="736" y="134" width="12" height="12" rx="2" fill="#161b22"/><rect x="751" y="44" width="12" height="12" rx="2" fill="#161b22"/><rect x="751" y="59" width="12" height="12" rx="2" fill="#161b22"/><rect x="751" y="74" width="12" height="12" rx="2" fill="#161b22"/><rect x="751" y="89" width="12" height="12" rx="2" fill="#161b22"/><rect x="751" y="104" width="12" height="12" rx="2" fill="#161b22"/><rect x="751" y="119" width="12" height="12" rx="2" fill="#161b22"/><rect x="751" y="134" width="12" height="12" rx="2" fill="#161b22"/><rect x="766" y="44" width="12" height="12" rx="2" fill="#161b22"/><rect x="766" y="59" width="12" height="12" rx="2" fill="#161b22"/><rect x="766" y="74" width="12" height="12" rx="2" fill="#161b22"/><rect x="766" y="89" width="12" height="12" rx="2" fill="#161b22"/><rect x="766" y="104" width="12" height="12" rx="2" fill="#161b22"/><rect x="766" y="119" width="12" height="12" rx="2" fill="#161b22"/><rect x="766" y="134" width="12" height="12" rx="2" fill="#161b22"/><rect x="781" y="44" width="12" height="12" rx="2" fill="#161b22"/><rect x="781" y="59" width="12" height="12" rx="2" fill="#161b22"/><rect x="781" y="74" width="12" height="12" rx="2" fill="#161b22"/><rect x="781" y="89" width="12" height="12" rx="2" fill="#161b22"/><rect x="781" y="104" width="12" height="12" rx="2" fill="#161b22"/><rect x="781" y="119" width="12" height="12" rx="2" fill="#161b22"/><rect x="781" y="134" width="12" height="12" rx="2" fill="#161b22"/><rect x="796" y="44" width="12" height="12" rx="2" fill="#161b22"/><rect x="796" y="59" width="12" height="12" rx="2" fill="#161b22"/><rect x="796" y="74" width="12" height="12" rx="2" fill="#161b22"/><rect x="796" y="89" width="12" height="12" rx="2" fill="#161b22"/><rect x="796" y="104" width="12" height="12" rx="2" fill="#161b22"/><rect x="796" y="119" width="12" height="12" rx="2" fill="#161b22"/><rect x="796" y="134" width="12" height="12" rx="2" fill="#161b22"/>
</svg>
